<svg width="264" height="351" viewBox="0 0 264 351" fill="none" xmlns="http://www.w3.org/2000/svg">
<g opacity="0.2">
<path d="M223.017 196.121C211.521 219.419 195.946 242.629 180.019 263.469C164.911 283.117 148.756 301.937 131.625 319.849C114.494 301.938 98.3389 283.117 83.2309 263.469C67.3042 242.629 51.7286 219.419 40.2334 196.121C28.6065 172.582 21.9375 150.535 21.9375 131.625C21.9375 102.534 33.4938 74.6346 54.0642 54.0642C74.6346 33.4938 102.534 21.9375 131.625 21.9375C160.716 21.9375 188.615 33.4938 209.186 54.0642C229.756 74.6346 241.312 102.534 241.312 131.625C241.312 150.535 234.622 172.582 223.017 196.121ZM131.625 351C131.625 351 263.25 226.263 263.25 131.625C263.25 96.7159 249.382 63.2365 224.698 38.5521C200.013 13.8676 166.534 0 131.625 0C96.7159 0 63.2365 13.8676 38.5521 38.5521C13.8676 63.2365 5.20186e-07 96.7159 0 131.625C0 226.263 131.625 351 131.625 351Z" fill="url(#paint0_linear_6153_26899)"/>
<path d="M131.625 175.5C119.989 175.5 108.829 170.877 100.601 162.649C92.3725 154.421 87.75 143.261 87.75 131.625C87.75 119.989 92.3725 108.829 100.601 100.601C108.829 92.3725 119.989 87.75 131.625 87.75C143.261 87.75 154.421 92.3725 162.649 100.601C170.877 108.829 175.5 119.989 175.5 131.625C175.5 143.261 170.877 154.421 162.649 162.649C154.421 170.877 143.261 175.5 131.625 175.5ZM131.625 197.437C149.08 197.437 165.819 190.504 178.161 178.161C190.504 165.819 197.437 149.08 197.437 131.625C197.437 114.17 190.504 97.4308 178.161 85.0885C165.819 72.7463 149.08 65.8125 131.625 65.8125C114.17 65.8125 97.4308 72.7463 85.0885 85.0885C72.7463 97.4308 65.8125 114.17 65.8125 131.625C65.8125 149.08 72.7463 165.819 85.0885 178.161C97.4308 190.504 114.17 197.437 131.625 197.437Z" fill="url(#paint1_linear_6153_26899)"/>
</g>
<defs>
<linearGradient id="paint0_linear_6153_26899" x1="131.625" y1="0" x2="131.625" y2="351" gradientUnits="userSpaceOnUse">
<stop stop-color="#24489C"/>
<stop offset="0.859375" stop-color="#24489C" stop-opacity="0"/>
<stop offset="1" stop-color="#24489C" stop-opacity="0"/>
</linearGradient>
<linearGradient id="paint1_linear_6153_26899" x1="131.625" y1="65.8125" x2="131.625" y2="197.437" gradientUnits="userSpaceOnUse">
<stop stop-color="#24489C"/>
<stop offset="0.859375" stop-color="#24489C" stop-opacity="0"/>
<stop offset="1" stop-color="#24489C" stop-opacity="0"/>
</linearGradient>
</defs>
</svg>
